<?xml version="1.0" encoding="utf-8"?>
<!-- Generator: Adobe Illustrator 16.0.0, SVG Export Plug-In . SVG Version: 6.00 Build 0)  -->
<!DOCTYPE svg PUBLIC "-//W3C//DTD SVG 1.1//EN" "http://www.w3.org/Graphics/SVG/1.1/DTD/svg11.dtd">
<svg version="1.1" id="Layer_1" xmlns="http://www.w3.org/2000/svg" xmlns:xlink="http://www.w3.org/1999/xlink" x="0px" y="0px"
	 width="419.291px" height="173.842px" viewBox="0 0 419.291 173.842" enable-background="new 0 0 419.291 173.842"
	 xml:space="preserve">
<path fill="#D31245" d="M349.707,2.379L322.72,2.408l-54.774,133.946L247.417,86.83l-17.413-42.097L212.596,2.422H185.34
	l-10.119,24.276L158.63,66.514L143.714,103.2c-3.598,8.256-5.059,10.758-5.059,10.758c-9.644,16.576-19.003,21.771-19.003,21.771
	c-11.73,8.462-24.49,9.438-24.49,9.438c-19.351,2.912-34.469-5.55-34.469-5.55c-12.134-5.755-20.05-16.37-20.05-16.37
	c-8.941-11.028-11.506-24.9-11.506-24.9c-2.92-15.533,1.178-27.675,1.178-27.675c3.747-12.145,9.778-19.557,9.778-19.557
	c7.628-9.644,16.229-14.639,16.229-14.639C72,27.39,86.564,27.805,86.564,27.805c17.824-1.185,35.791,10.062,35.791,10.062
	l10.957-24.624c-16.449-9.771-32.039-12.006-32.039-12.006C84.556-2.027,67.008,2.202,67.008,2.202
	C48.973,6.296,34.969,17.196,34.969,17.196c-12.003,8.586-21.019,22.396-21.019,22.396C1.468,60.258,0.631,76.835,0.631,76.835
	c-2.356,17.481,2.64,33.5,2.64,33.5c4.375,17.13,16.573,31.773,16.573,31.773c12.833,15.668,30.176,23.438,30.176,23.438
	c19.078,9.303,37.599,8.26,37.599,8.26c19.757-0.071,34.119-7.352,34.119-7.352c16.087-6.951,23.517-15.889,23.517-15.889
	c8.388-8.668,15.739-19.422,15.739-19.422h74.977l16.321,38.989l31.066,0.061l16.158-38.908l73.792-0.074l16.3,38.989h29.683
	L349.707,2.379z M172.801,104.307l25.489-64.468l26.923,64.525L172.801,104.307z M310.437,104.307l25.475-64.468l26.937,64.525
	L310.437,104.307z"/>
</svg>
